# xmcd
#
# Track frame offsets:
#	150
#	15614
#	29572
#	47530
#	65657
#	77115
#	88739
#	104217
#	116703
#	131407
#	144397
#	156617
#	168128
#	179715
#	192591
#	206071
#	217474
#	235423
#
# Disc length: 3365 seconds
#
# Revision: 1
# Processed by: cddbd v1.5.2PL0 Copyright (c) Steve Scherf et al.
# Submitted via: audiograbber 1.82.02
#
DISCID=1d0d2312
DTITLE=Various Artist - Country Hits Of Yesterday
DYEAR=2004
DGENRE=Country
TTITLE0=Bobby Goldsboro - Daddy, Don't You Walk So Fast
TTITLE1=Bobby Goldsboro - Goodbye Marie
TTITLE2=Bobby Goldsboro - Honey
TTITLE3=David Frizzell and Shelly West - I'm Gonna Hire A Wino
TTITLE4=Don Gibson - I'd Be A Legend In My Time
TTITLE5=Don Gibson - Oh, Lonesome Me
TTITLE6=Don Gibson - Tie A Yellow Ribbon Around The Old Oak Tree
TTITLE7=Don Gibson and Dottie West - Rings Of Gold
TTITLE8=George Jones - The Asshole Song
TTITLE9=George Jones - Bottle In My Hand
TTITLE10=Claude K - The Girl From Wolverton Mountain
TTITLE11=Hank Thompson - Squaws Along The Yukon
TTITLE12=Hank Thompson - The Older The Violin
TTITLE13=Hank Williams Jnr - Tear In My Beer
TTITLE14=Johnny Cash - Chicken In Black
TTITLE15=Johnny Horton - Waterloo
TTITLE16=Johnny Paycheck - I'm Gonna Hire A Wino
TTITLE17=Slim Dusty - Bloody Bonza Mate
EXTD=
EXTT0=
EXTT1=
EXTT2=
EXTT3=
EXTT4=
EXTT5=
EXTT6=
EXTT7=
EXTT8=
EXTT9=
EXTT10=
EXTT11=
EXTT12=
EXTT13=
EXTT14=
EXTT15=
EXTT16=
EXTT17=
PLAYORDER=
